<svg width="47" height="124" viewBox="0 0 47 124" fill="none" xmlns="http://www.w3.org/2000/svg">
<path d="M20.3 48.296C20.372 47.072 20.408 45.434 20.408 43.382C20.444 41.33 20.462 39.044 20.462 36.524C20.498 33.968 20.516 31.322 20.516 28.586C20.516 25.814 20.516 23.114 20.516 20.486C17.996 20.486 15.566 20.504 13.226 20.54C10.922 20.576 8.852 20.612 7.016 20.648C5.18 20.684 3.704 20.738 2.588 20.81C2.588 20.45 2.57 19.946 2.534 19.298C2.534 18.65 2.516 18.002 2.48 17.354C2.48 16.67 2.462 16.148 2.426 15.788C3.686 15.824 5.252 15.86 7.124 15.896C9.032 15.896 11.138 15.896 13.442 15.896C15.746 15.86 18.104 15.842 20.516 15.842L20.462 14.006C20.462 11.702 20.426 9.794 20.354 8.282C20.318 6.77 20.264 5.618 20.192 4.826C20.624 4.826 21.182 4.844 21.866 4.88C22.55 4.88 23.234 4.898 23.918 4.934C24.638 4.934 25.232 4.952 25.7 4.988C25.628 5.78 25.556 6.896 25.484 8.336C25.448 9.776 25.43 11.648 25.43 13.952V15.842C27.986 15.806 30.434 15.77 32.774 15.734C35.15 15.698 37.274 15.662 39.146 15.626C41.054 15.59 42.566 15.554 43.682 15.518C43.682 15.626 43.682 15.752 43.682 15.896C43.682 16.04 43.682 16.202 43.682 16.382C43.682 17.066 43.682 17.84 43.682 18.704C43.682 19.532 43.7 20.144 43.736 20.54C42.584 20.504 41.054 20.486 39.146 20.486C37.274 20.45 35.15 20.432 32.774 20.432C30.434 20.432 27.986 20.45 25.43 20.486C25.43 22.718 25.43 25.166 25.43 27.83C25.466 30.494 25.502 33.158 25.538 35.822C25.574 38.45 25.61 40.862 25.646 43.058C25.718 45.254 25.79 47 25.862 48.296H20.3ZM42.44 42.896C41.036 41.816 39.596 40.466 38.12 38.846C36.644 37.19 35.258 35.426 33.962 33.554C32.702 31.646 31.622 29.774 30.722 27.938C31.01 27.794 31.424 27.578 31.964 27.29C32.54 27.002 33.116 26.714 33.692 26.426C34.268 26.138 34.7 25.904 34.988 25.724C36.176 28.28 37.796 30.836 39.848 33.392C41.9 35.912 44.096 38.018 46.436 39.71C46.148 39.89 45.734 40.196 45.194 40.628C44.69 41.024 44.168 41.438 43.628 41.87C43.124 42.302 42.728 42.644 42.44 42.896ZM4.208 43.004C3.92 42.752 3.506 42.428 2.966 42.032C2.426 41.6 1.886 41.186 1.346 40.79C0.842 40.394 0.428 40.124 0.104 39.98C1.616 38.828 3.056 37.46 4.424 35.876C5.828 34.292 7.088 32.618 8.204 30.854C9.356 29.054 10.292 27.29 11.012 25.562C11.336 25.706 11.786 25.922 12.362 26.21C12.938 26.498 13.514 26.768 14.09 27.02C14.666 27.272 15.08 27.47 15.332 27.614C14.54 29.45 13.532 31.34 12.308 33.284C11.12 35.192 9.824 36.992 8.42 38.684C7.016 40.376 5.612 41.816 4.208 43.004ZM43.79 8.93C43.61 8.714 43.214 8.318 42.602 7.742C42.026 7.13 41.378 6.464 40.658 5.744C39.974 5.024 39.326 4.376 38.714 3.8C38.138 3.188 37.76 2.792 37.58 2.612L39.794 0.505997C39.974 0.721998 40.352 1.136 40.928 1.748C41.504 2.324 42.134 2.972 42.818 3.692C43.538 4.412 44.186 5.078 44.762 5.69C45.374 6.266 45.77 6.644 45.95 6.824L43.79 8.93ZM39.092 12.71C38.912 12.494 38.516 12.098 37.904 11.522C37.328 10.91 36.68 10.244 35.96 9.524C35.276 8.804 34.628 8.156 34.016 7.58C33.44 6.968 33.062 6.572 32.882 6.392L35.096 4.34C35.276 4.556 35.654 4.97 36.23 5.582C36.806 6.158 37.436 6.806 38.12 7.526C38.84 8.246 39.488 8.912 40.064 9.524C40.676 10.1 41.072 10.478 41.252 10.658L39.092 12.71ZM6.8 123.596C6.656 123.272 6.386 122.768 5.99 122.084C5.594 121.4 5.18 120.734 4.748 120.086C4.352 119.402 4.046 118.934 3.83 118.682C7.394 117.854 11.012 116.666 14.684 115.118C18.356 113.57 21.974 111.752 25.538 109.664C29.102 107.54 32.468 105.218 35.636 102.698C38.84 100.178 41.702 97.514 44.222 94.706C44.294 95.066 44.438 95.66 44.654 96.488C44.87 97.28 45.086 98.054 45.302 98.81C45.554 99.53 45.734 99.998 45.842 100.214C42.638 103.598 38.912 106.802 34.664 109.826C30.452 112.814 25.97 115.496 21.218 117.872C16.466 120.212 11.66 122.12 6.8 123.596ZM15.656 99.458C15.044 98.774 14.234 97.982 13.226 97.082C12.218 96.182 11.12 95.264 9.932 94.328C8.78 93.356 7.628 92.456 6.476 91.628C5.324 90.764 4.298 90.062 3.398 89.522C3.722 89.234 4.154 88.82 4.694 88.28C5.234 87.704 5.756 87.146 6.26 86.606C6.764 86.066 7.088 85.706 7.232 85.526C8.096 86.102 9.086 86.822 10.202 87.686C11.354 88.514 12.506 89.414 13.658 90.386C14.846 91.322 15.944 92.24 16.952 93.14C17.996 94.04 18.842 94.832 19.49 95.516C19.238 95.768 18.86 96.164 18.356 96.704C17.852 97.208 17.348 97.73 16.844 98.27C16.34 98.774 15.944 99.17 15.656 99.458Z" fill="white"/>
</svg>
