<svg width="435" height="71" viewBox="0 0 435 71" fill="none" xmlns="http://www.w3.org/2000/svg">
<path d="M0.0640006 69V1.8H5.92L29.056 36.456L51.904 1.8H57.952V69H51.904V12.072L30.688 44.424H27.424L6.016 12.072V69H0.0640006ZM74.1265 69V1.8H115.887V7.368H79.9825V31.752H112.719V37.512H79.9825V63.336H117.039V69H74.1265ZM129.72 69V1.704H159C165.336 1.704 170.136 3.176 173.4 6.12C176.728 9.064 178.392 13.448 178.392 19.272C178.392 30.216 172.632 36.04 161.112 36.744L178.296 69H171.384L154.584 36.84H135.576V69H129.72ZM135.576 31.176H158.52C163.128 31.176 166.552 30.216 168.792 28.296C171.096 26.376 172.248 23.368 172.248 19.272C172.248 15.176 171.096 12.168 168.792 10.248C166.552 8.328 163.128 7.368 158.52 7.368H135.576V31.176ZM191.127 69V1.8H196.983V69H191.127ZM211.908 47.496V41.736H238.98V47.496H211.908ZM253.752 69V1.8H278.328C284.792 1.8 289.592 3.304 292.728 6.31199C295.864 9.25599 297.432 13.416 297.432 18.792C297.432 22.376 296.568 25.448 294.84 28.008C293.112 30.568 290.84 32.424 288.024 33.576C291.864 34.728 294.936 36.904 297.24 40.104C299.608 43.24 300.792 46.888 300.792 51.048C300.792 56.872 299.096 61.32 295.704 64.392C292.312 67.464 287.032 69 279.864 69H253.752ZM259.608 63.336H279.384C284.696 63.336 288.536 62.28 290.904 60.168C293.336 58.056 294.552 54.856 294.552 50.568C294.552 46.408 293.112 43.08 290.232 40.584C287.352 38.088 283.64 36.84 279.096 36.84H259.608V63.336ZM259.608 31.176H278.616C282.648 31.176 285.752 30.088 287.928 27.912C290.104 25.672 291.192 22.824 291.192 19.368C291.192 15.208 290.104 12.168 287.928 10.248C285.752 8.328 282.296 7.368 277.56 7.368H259.608V31.176ZM341.388 70.248C335.308 70.248 329.964 68.808 325.356 65.928C320.748 63.048 317.132 58.984 314.508 53.736C311.948 48.488 310.668 42.344 310.668 35.304C310.668 28.264 311.948 22.152 314.508 16.968C317.132 11.72 320.748 7.656 325.356 4.776C329.964 1.832 335.308 0.359997 341.388 0.359997C347.404 0.359997 352.716 1.832 357.324 4.776C361.932 7.656 365.516 11.72 368.076 16.968C370.7 22.152 372.012 28.264 372.012 35.304C372.012 42.344 370.7 48.488 368.076 53.736C365.516 58.984 361.932 63.048 357.324 65.928C352.716 68.808 347.404 70.248 341.388 70.248ZM341.388 64.488C346.188 64.488 350.412 63.336 354.06 61.032C357.772 58.664 360.652 55.304 362.7 50.952C364.812 46.536 365.868 41.32 365.868 35.304C365.868 29.288 364.812 24.104 362.7 19.752C360.652 15.4 357.772 12.072 354.06 9.768C350.412 7.4 346.188 6.216 341.388 6.216C336.588 6.216 332.332 7.4 328.62 9.768C324.908 12.072 321.996 15.4 319.884 19.752C317.772 24.104 316.716 29.288 316.716 35.304C316.716 41.32 317.772 46.536 319.884 50.952C321.996 55.304 324.908 58.664 328.62 61.032C332.332 63.336 336.588 64.488 341.388 64.488ZM384.533 69V1.8H390.389L428.309 58.44V1.8H434.261V69H428.501L390.389 11.784V69H384.533Z" fill="white"/>
</svg>
