<svg width="248" height="40" viewBox="0 0 248 40" fill="none" xmlns="http://www.w3.org/2000/svg">
<path d="M0.158 39V1.2H5.072L16.844 19.938L28.562 1.2H33.584V39H28.508V9.786L18.248 26.418H15.44L5.126 9.786V39H0.158ZM41.8709 39V1.2H66.3329V5.844H46.7849V17.346H64.6049V22.044H46.7849V34.356H66.9809V39H41.8709ZM73.3533 39V1.2H90.2553C93.8193 1.2 96.5733 2.028 98.5173 3.684C100.497 5.34 101.487 7.968 101.487 11.568C101.487 14.772 100.713 17.22 99.1653 18.912C97.6173 20.604 95.3673 21.594 92.4153 21.882L101.217 39H95.4393L87.2313 22.098H78.2673V39H73.3533ZM78.2673 17.4H89.6613C91.8213 17.4 93.4593 16.95 94.5753 16.05C95.7273 15.114 96.3033 13.62 96.3033 11.568C96.3033 9.552 95.7273 8.094 94.5753 7.194C93.4593 6.294 91.8213 5.844 89.6613 5.844H78.2673V17.4ZM107.947 39V1.2H112.861V39H107.947ZM120.535 27.714V23.232H136.519V27.714H120.535ZM144.176 39V1.2H159.134C162.482 1.2 165.092 2.028 166.964 3.684C168.872 5.304 169.826 7.662 169.826 10.758C169.826 12.882 169.34 14.664 168.368 16.104C167.396 17.544 166.118 18.552 164.534 19.128C166.586 19.596 168.26 20.73 169.556 22.53C170.888 24.294 171.554 26.4 171.554 28.848C171.554 32.232 170.546 34.77 168.53 36.462C166.55 38.154 163.652 39 159.836 39H144.176ZM149.09 34.356H159.242C161.69 34.356 163.472 33.87 164.588 32.898C165.704 31.89 166.262 30.342 166.262 28.254C166.262 26.238 165.596 24.672 164.264 23.556C162.932 22.44 161.24 21.882 159.188 21.882H149.09V34.356ZM149.09 17.184H158.594C160.502 17.184 161.96 16.662 162.968 15.618C163.976 14.574 164.48 13.188 164.48 11.46C164.48 7.716 162.41 5.844 158.27 5.844H149.09V17.184ZM193.952 39.81C190.532 39.81 187.508 39 184.88 37.38C182.252 35.76 180.182 33.474 178.67 30.522C177.194 27.57 176.456 24.096 176.456 20.1C176.456 16.104 177.194 12.63 178.67 9.678C180.182 6.69 182.252 4.386 184.88 2.766C187.508 1.11 190.532 0.282 193.952 0.282C197.372 0.282 200.378 1.11 202.97 2.766C205.598 4.386 207.65 6.69 209.126 9.678C210.638 12.63 211.394 16.104 211.394 20.1C211.394 24.096 210.638 27.57 209.126 30.522C207.65 33.474 205.598 35.76 202.97 37.38C200.378 39 197.372 39.81 193.952 39.81ZM193.952 34.95C196.4 34.95 198.542 34.338 200.378 33.114C202.25 31.89 203.69 30.18 204.698 27.984C205.742 25.752 206.264 23.124 206.264 20.1C206.264 17.04 205.742 14.412 204.698 12.216C203.69 9.984 202.25 8.256 200.378 7.032C198.542 5.808 196.4 5.196 193.952 5.196C191.504 5.196 189.344 5.808 187.472 7.032C185.636 8.256 184.196 9.984 183.152 12.216C182.108 14.412 181.586 17.04 181.586 20.1C181.586 23.124 182.108 25.752 183.152 27.984C184.196 30.18 185.636 31.89 187.472 33.114C189.344 34.338 191.504 34.95 193.952 34.95ZM217.846 39V1.2H222.76L242.146 30.306V1.2H247.114V39H242.362L222.76 9.354V39H217.846Z" fill="white"/>
</svg>
