<svg width="39" height="123" viewBox="0 0 39 123" fill="none" xmlns="http://www.w3.org/2000/svg">
<path d="M4.368 43.566C4.044 43.026 3.504 42.342 2.748 41.514C1.992 40.686 1.326 40.038 0.75 39.57C4.818 37.734 8.526 35.394 11.874 32.55C15.258 29.706 18.21 26.484 20.73 22.884C18.786 21.516 16.896 20.256 15.06 19.104C13.224 17.952 11.586 16.998 10.146 16.242C10.578 15.846 11.118 15.234 11.766 14.406C12.45 13.578 12.954 12.876 13.278 12.3C14.646 13.02 16.212 13.938 17.976 15.054C19.74 16.134 21.558 17.304 23.43 18.564C24.474 16.728 25.41 14.82 26.238 12.84C27.066 10.824 27.768 8.754 28.344 6.63C28.596 5.694 28.866 4.65 29.154 3.498C29.442 2.346 29.676 1.266 29.856 0.257997C30.288 0.437999 30.846 0.653999 31.53 0.905998C32.214 1.122 32.898 1.32 33.582 1.5C34.302 1.68 34.896 1.824 35.364 1.932C35.04 2.724 34.68 3.66 34.284 4.74C33.888 5.82 33.528 6.936 33.204 8.088C32.52 10.464 31.692 12.768 30.72 15C29.784 17.196 28.74 19.32 27.588 21.372C29.748 22.92 31.8 24.45 33.744 25.962C35.688 27.474 37.29 28.842 38.55 30.066C38.226 30.354 37.812 30.75 37.308 31.254C36.84 31.758 36.39 32.28 35.958 32.82C35.526 33.324 35.202 33.738 34.986 34.062C33.87 32.946 32.412 31.668 30.612 30.228C28.812 28.752 26.886 27.258 24.834 25.746C22.278 29.418 19.29 32.766 15.87 35.79C12.486 38.778 8.652 41.37 4.368 43.566ZM16.086 122.754C15.906 122.43 15.582 121.962 15.114 121.35C14.682 120.774 14.214 120.198 13.71 119.622C13.206 119.01 12.756 118.542 12.36 118.218C15.528 117.066 18.138 115.788 20.19 114.384C22.278 112.944 23.916 111.144 25.104 108.984C26.292 106.788 27.12 104.052 27.588 100.776C28.092 97.464 28.344 93.36 28.344 88.464C28.344 86.844 28.326 85.278 28.29 83.766C28.29 82.218 28.272 80.85 28.236 79.662C28.2 78.438 28.164 77.538 28.128 76.962C28.56 76.962 29.154 76.98 29.91 77.016C30.702 77.052 31.476 77.088 32.232 77.124C32.988 77.16 33.546 77.178 33.906 77.178C33.87 77.754 33.834 78.654 33.798 79.878C33.762 81.102 33.726 82.47 33.69 83.982C33.69 85.458 33.69 86.952 33.69 88.464C33.69 93.54 33.42 97.896 32.88 101.532C32.376 105.132 31.476 108.21 30.18 110.766C28.884 113.322 27.084 115.554 24.78 117.462C22.512 119.37 19.614 121.134 16.086 122.754ZM9.012 104.124C9.048 103.404 9.066 102.342 9.066 100.938C9.102 99.498 9.12 97.878 9.12 96.078C9.12 94.278 9.12 92.424 9.12 90.516C9.12 88.608 9.102 86.79 9.066 85.062C9.03 83.298 8.994 81.768 8.958 80.472C8.922 79.14 8.886 78.186 8.85 77.61C9.21 77.646 9.768 77.682 10.524 77.718C11.28 77.754 12.036 77.79 12.792 77.826C13.548 77.826 14.088 77.826 14.412 77.826C14.34 78.438 14.304 79.122 14.304 79.878C14.304 80.634 14.304 81.498 14.304 82.47C14.304 82.722 14.304 82.992 14.304 83.28C14.304 83.568 14.304 83.856 14.304 84.144C14.304 84.684 14.304 85.332 14.304 86.088C14.304 86.844 14.304 87.672 14.304 88.572C14.304 89.94 14.286 91.398 14.25 92.946C14.25 94.458 14.25 95.952 14.25 97.428C14.25 98.904 14.25 100.236 14.25 101.424C14.286 102.576 14.322 103.476 14.358 104.124C13.962 104.088 13.404 104.07 12.684 104.07C12 104.07 11.316 104.07 10.632 104.07C9.948 104.07 9.408 104.088 9.012 104.124Z" fill="white"/>
</svg>
